<svg xmlns="http://www.w3.org/2000/svg" id="Layer_1" data-name="Layer 1" viewBox="0 0 162.58 150"><defs style="&#10;    color: #723CEB;&#10;"><style>.cls-1{fill:#723CEB;}</style></defs><title>Outline web assets</title><path class="cls-1" d="M118.86,100.88a6.75,6.75,0,1,1,6.75-6.75,6.75,6.75,0,0,1-6.75,6.75m-74.56,0a6.75,6.75,0,1,1,6.75-6.75,6.75,6.75,0,0,1-6.75,6.75m77-40.64,13.48-23.35a2.8,2.8,0,1,0-4.85-2.8L116.26,57.73a84.84,84.84,0,0,0-69.35,0L33.26,34.09a2.8,2.8,0,0,0-4.86,2.8L41.88,60.24A79.61,79.61,0,0,0,.58,124h162a79.61,79.61,0,0,0-41.3-63.72"/></svg>