<svg xmlns="http://www.w3.org/2000/svg" id="Layer_1" data-name="Layer 1" viewBox="0 0 150 150"><defs><style>.cls-1{fill:#723CEB;}</style></defs><title>Outline web assets</title><path class="cls-1" d="M51.49,146.3a16.66,16.66,0,0,1-8.72-4.44c-5.79-5.11-10.09-11.42-14-18A88.64,88.64,0,0,1,17.36,91.55c-1.43-9.46-1.23-18.86,1.89-28a37.09,37.09,0,0,1,15.56-20.1,34.52,34.52,0,0,1,14.72-5c5.94-.68,11.31,1.15,16.67,3.23,1.33.53,2.7,1,4,1.56,4,1.78,7.84,1.37,11.77-.26A71.85,71.85,0,0,1,95.33,38.4a34.38,34.38,0,0,1,19.47,2A31.11,31.11,0,0,1,128.6,51c.61.8.68,1.2-.26,1.86C121,58,115.88,64.73,114.41,73.72c-1.52,9.32.38,17.92,6.45,25.38A32.66,32.66,0,0,0,132.2,108c.72.35.9.66.63,1.48A86,86,0,0,1,119.55,134a42.33,42.33,0,0,1-8.2,8.76c-5.47,4.09-11.41,4.53-17.69,2.34-3.28-1.14-6.35-2.88-9.76-3.68A28,28,0,0,0,66.37,143a51.93,51.93,0,0,1-7.69,2.9,19.93,19.93,0,0,1-6.2.59A2.4,2.4,0,0,0,51.49,146.3Z"/><path class="cls-1" d="M103.42,6.34A31.56,31.56,0,0,1,95.2,26.87a28,28,0,0,1-14.64,9,20.93,20.93,0,0,1-5.12.42c-.66,0-.78-.3-.85-.89a24.06,24.06,0,0,1,2-11.85C80.79,13.26,88.36,6.8,99,3.87c1.14-.31,2.33-.42,3.5-.62.69-.12,1,.18.94.88S103.42,5.6,103.42,6.34Z"/><path class="cls-1" d="M51.49,146.3c.43-.46.69,0,1,.2C52.13,146.52,51.77,146.61,51.49,146.3Z"/></svg>