<svg xmlns="http://www.w3.org/2000/svg" id="Layer_1" data-name="Layer 1" viewBox="0 0 150 150"><defs><style>.cls-1{fill:#723CEB;}</style></defs><title>Outline web assets</title><path class="cls-1" d="M75,1.1c-5.42.68-11,3.07-14,6a17.17,17.17,0,0,0-4.12,7.45c-1.2,4.46-1.39,9.52-.67,17.7.75,8.41.74,16,0,18.92-.38,1.49-.43,1.56-5.54,8.41-8,10.7-7.86,10.47-13.1,25.21a50.89,50.89,0,0,1-2.87,7.07c-1.54,3-1.88,4.3-1.88,6.89a12,12,0,0,0,.54,3.66c.07.17-.13.39-.68.74a9.31,9.31,0,0,0-2.84,3.59A9.47,9.47,0,0,1,28,109.23c-1.79,1.78-3.62,2.6-8.26,3.71a19.6,19.6,0,0,0-3.13,1,4.86,4.86,0,0,0-2.38,2.63,9.61,9.61,0,0,0,.39,5.2,12.62,12.62,0,0,1,.46,5.57c-.11.52-.62,2.32-1.16,4-1.15,3.68-1.22,4.39-.52,5.61,1.34,2.35,5,3.61,14.2,4.86a46.33,46.33,0,0,1,9.12,2.42l6.54,2.27c7.9,2.75,11.5,3,14.73.86a9.8,9.8,0,0,0,2.88-3.06c.29-.58.45-.73.86-.8,4.81-.84,6.19-1.06,8.32-1.32a77,77,0,0,1,9.8-.62,67.74,67.74,0,0,1,12.83,1.24c2.77.52,2.58.42,3.49,1.91a11.4,11.4,0,0,0,4,4,11.93,11.93,0,0,0,9,.34,11.2,11.2,0,0,0,4.51-2.89c3.53-3.27,7.08-5.55,17.18-11,2.43-1.32,4.86-2.7,5.42-3.07,2.66-1.75,3.86-4.38,3.09-6.72a5.84,5.84,0,0,0-2.22-2.63l-2-1a10.86,10.86,0,0,1-3.52-2.46,7.51,7.51,0,0,1-2.19-5.64c0-1-.15-2.18-.24-2.68a10.68,10.68,0,0,0-2.58-5l-.63-.68.41-1.84a35.12,35.12,0,0,0,1-8c.15-5.83-.45-8.64-3-14s-8-14.08-14.79-23.61c-5.08-7.16-5.36-7.6-6.16-9.59-1.4-3.48-1.82-6.25-2.1-14-.25-6.68-.53-9.5-1.32-13.06A42.78,42.78,0,0,0,97.3,13,20.11,20.11,0,0,0,82.56,1.38,34.06,34.06,0,0,0,75,1.1Zm9.27,19.57a8.33,8.33,0,0,1,4.9,5.8,13,13,0,0,1,0,5.3,9.26,9.26,0,0,1-2.4,4.14,7,7,0,0,1-1.17,1,6,6,0,0,1-1-.38l-.87-.39.67-.59a5.88,5.88,0,0,0,.34-7.72c-2.48-2.75-6.14-.61-6.14,3.6a8.39,8.39,0,0,0,.22,1.92,2.86,2.86,0,0,1,.17.78,10.42,10.42,0,0,1-1.55-.53c-1.49-.57-1.5-.58-1.76-1.27a10.67,10.67,0,0,1,.86-8.42,6.64,6.64,0,0,1,7.74-3.26ZM65.82,22.19c1.48.75,2.83,2.73,3.45,5a16.85,16.85,0,0,1,.18,4.86c-.07.26-.31.47-.77.66a8.53,8.53,0,0,0-1.63,1c-.57.46-.91.65-.83.48a6.9,6.9,0,0,0,.28-3.16c-.45-2.6-2-4.33-3.68-4.14a1.73,1.73,0,0,0-1.32.76,4.26,4.26,0,0,0-1,3.22c0,2.65,1.47,4.9,3.27,5.09l.71.08L63.36,37,62.29,38l-.6-.33c-1.26-.71-2.53-2.69-3.09-4.82a14.76,14.76,0,0,1,0-5.62c.67-2.49,2.15-4.51,3.77-5.15a4.54,4.54,0,0,1,3.44.13ZM74,35.89c1.3.42,6.65,2.46,8.76,3.35A7.28,7.28,0,0,1,85.4,41c.72,1,.29,2-1.24,2.72-.41.21-2.19,1.24-4,2.29a71.34,71.34,0,0,1-7.85,4.22,4.12,4.12,0,0,1-2.92,0,30,30,0,0,1-5.74-4.1c-1.51-1.43-2.27-2.68-2-3.3a10.17,10.17,0,0,1,1.81-1.68c.92-.73,2.14-1.74,2.73-2.26,2.48-2.19,4.54-3.38,5.89-3.42a10.87,10.87,0,0,1,1.9.47ZM89,46c.49.52,4.11,7.86,6.09,12.33,5.52,12.45,9.27,22.58,10.35,27.91a46,46,0,0,1-.43,17.12c-.19.74-.34,1.05-.49,1s-.82-.09-1.58-.14c-2.32-.13-3.71.51-4.16,1.94-.29.92-.47,3.7-.63,9.57-.13,4.67-.2,5.76-.4,6.06A47.75,47.75,0,0,1,92.49,127a27.7,27.7,0,0,1-11.16,5.64,68.73,68.73,0,0,1-17.39.87l-.76-.1-3.13-3.57-3.13-3.57.87-.31a4.57,4.57,0,0,0,3.3-4.81c-.21-2.33-1.63-3.86-9-9.6-5.09-4-7.23-6.12-8.31-8.27a15.22,15.22,0,0,1-1.18-5.73A29.86,29.86,0,0,1,45.91,83c2.28-4.28,2.43-4.65,4.55-10.71,2.41-6.92,3-8.21,4.83-10.64,2.79-3.7,4.73-9.13,4.6-12.91l0-1.54,1.57,1.57c3.37,3.37,6.5,5.22,8.82,5.22,1.64,0,3.29-.73,9-4s7.87-4.31,8.93-4.33A1.1,1.1,0,0,1,89,46ZM37.64,106.76c1.65.9,4.27,3.77,5.89,6.44,7,11.58,8.35,13.64,10.39,16,2.93,3.38,4.15,6,4,8.53-.11,1.72-.85,3.09-2.61,4.84s-2.16,2-4.1,1.85c-2.61-.15-6.2-1.22-12-3.58s-5.62-2.29-12.4-3.45-8.26-1.57-8.76-2.5c-.37-.71-.14-2.56.62-5,1.18-3.79,1.26-4.86.63-8.08-.52-2.65-.46-3.62.28-4.31s1.8-1,5.2-1.81c4-.94,4.49-1.13,5.68-2.33a10.4,10.4,0,0,0,2.14-3.26c1.2-2.39,1.89-3.34,2.64-3.69a2.79,2.79,0,0,1,2.42.37Zm68,3.94c.16,2.84.8,4.66,2.11,5.93a5.34,5.34,0,0,0,3.07,1.41c3.14.55,8-1,10.18-3.13a17.76,17.76,0,0,0,2.45-3.36c.51-.91.57-1,.86-.77a4.17,4.17,0,0,1,.77,1c.42.75.46,1,.56,3,.23,4.4,1.61,6.81,4.92,8.58,3.05,1.62,4.19,2.62,4.19,3.64s-.58,1.51-6.94,4.83c-7.78,4.07-9.06,4.88-11.85,7.48-5,4.73-8.74,6.4-11.31,5.15a7.52,7.52,0,0,1-3.54-4.85c-.43-1.82-.31-3.66.52-7.82,1.57-7.85,1.88-11.31,1.47-16.3-.47-5.81-.3-6.51,1.67-6.52h.78l.09,1.78Z"/></svg>