<svg width="24" height="24" viewBox="0 0 24 24" fill="none" xmlns="http://www.w3.org/2000/svg">
<g opacity="0.65">
<path d="M11 2.5V3C11 5.8284 11 7.2426 10.1213 8.1213C9.2426 9 7.8284 9 5 9H4.5M4 10.6569V14C4 17.7712 4 19.6568 5.1716 20.8284C6.3431 22 8.2288 22 12 22C15.7712 22 17.6569 22 18.8284 20.8284C20 19.6569 20 17.7712 20 14V9.4558C20 6.2108 20 4.5883 19.1139 3.4893C18.9349 3.2673 18.7327 3.0651 18.5107 2.8861C17.4117 2 15.7892 2 12.5442 2C11.8386 2 11.4859 2 11.1628 2.114C11.0956 2.1377 11.0298 2.165 10.9655 2.1957C10.6564 2.3436 10.407 2.593 9.9081 3.0919L5.1716 7.8284C4.5935 8.4065 4.3045 8.6955 4.1522 9.0631C4 9.4306 4 9.8394 4 10.6569Z" stroke="white" stroke-width="1.5" stroke-linecap="round" stroke-linejoin="round"/>
</g>
</svg>
