<svg width="14" height="14" viewBox="0 0 14 14" fill="none" xmlns="http://www.w3.org/2000/svg">
<mask id="path-1-outside-1_1_25707" maskUnits="userSpaceOnUse" x="-0.749969" y="-0.752686" width="14" height="15" fill="black">
<rect fill="white" x="-0.749969" y="-0.752686" width="14" height="15"/>
<path d="M12.1954 11.1736C12.1949 11.1698 12.1965 11.1663 12.1958 11.1626C12.0592 10.4148 11.6645 9.73867 11.0805 9.25209C10.4965 8.7655 9.76017 8.49934 9.00001 8.5H5.00001C4.46352 8.49947 3.93528 8.63203 3.46261 8.88581C2.98994 9.13958 2.5876 9.50664 2.29164 9.9541C2.27254 9.98142 2.2591 10.0123 2.25212 10.0449C2.24513 10.0775 2.24473 10.1111 2.25094 10.1439C2.25716 10.1767 2.26986 10.2078 2.2883 10.2356C2.30675 10.2634 2.33056 10.2872 2.35833 10.3056C2.38611 10.324 2.41729 10.3367 2.45005 10.3429C2.4828 10.3491 2.51647 10.3487 2.54906 10.3417C2.58165 10.3347 2.61252 10.3213 2.63984 10.3022C2.66715 10.2831 2.69038 10.2587 2.70814 10.2305C2.95862 9.85186 3.2991 9.54128 3.69907 9.32654C4.09905 9.11179 4.54604 8.9996 5.00001 9H9.00001C9.62248 8.9994 10.2267 9.21031 10.7136 9.59814C11.2004 9.98598 11.5411 10.5277 11.6797 11.1346C11.6525 11.1655 11.625 11.1962 11.5972 11.2267C11.5629 11.2642 11.5286 11.3018 11.4935 11.3384C11.4507 11.3829 11.4069 11.426 11.363 11.4691C11.3266 11.5048 11.2903 11.5406 11.2532 11.5754C11.2085 11.617 11.1628 11.6573 11.1171 11.6976C11.0787 11.7313 11.0406 11.7653 11.0015 11.798C10.9553 11.8367 10.908 11.8739 10.8607 11.9112C10.8204 11.9431 10.7803 11.9753 10.7392 12.006C10.6917 12.0417 10.6429 12.0758 10.5944 12.1101C10.552 12.1401 10.5099 12.1703 10.4669 12.1991C10.4179 12.2318 10.368 12.2628 10.3181 12.2941C10.274 12.3218 10.2302 12.35 10.1855 12.3766C10.1352 12.4066 10.0838 12.4345 10.0327 12.463C9.98701 12.4884 9.94164 12.5144 9.89521 12.5386C9.84356 12.5657 9.79096 12.5908 9.73856 12.6164C9.69156 12.6393 9.64486 12.663 9.59729 12.6848C9.54406 12.7091 9.48993 12.7314 9.43604 12.7542C9.38803 12.7745 9.34039 12.7957 9.29186 12.8148C9.23709 12.8364 9.18144 12.8558 9.12604 12.8758C9.07734 12.8933 9.02899 12.912 8.97981 12.9283C8.92329 12.9472 8.86591 12.9637 8.80879 12.981C8.75969 12.9958 8.71094 13.0117 8.66141 13.0253C8.60306 13.0414 8.54391 13.055 8.48504 13.0693C8.43591 13.0813 8.38716 13.0945 8.33769 13.1053C8.27671 13.1186 8.21501 13.1293 8.15354 13.1408C8.10531 13.1498 8.05746 13.1601 8.00896 13.168C7.94384 13.1786 7.87801 13.1864 7.81239 13.195C7.76691 13.2009 7.72178 13.2083 7.67611 13.2132C7.60111 13.2213 7.52549 13.2263 7.44999 13.2318C7.41314 13.2344 7.37659 13.2386 7.33964 13.2406C7.22695 13.2469 7.11374 13.25 7.00001 13.25C6.88589 13.25 6.7722 13.2469 6.65894 13.2407C6.58866 13.2369 6.51894 13.2298 6.44894 13.2236C6.40673 13.2199 6.36423 13.2178 6.32219 13.2132C6.22623 13.2028 6.13094 13.1892 6.03591 13.1743C6.02051 13.1718 6.00486 13.1705 5.98948 13.168C5.88536 13.151 5.78199 13.1309 5.67921 13.1087C5.67314 13.1074 5.66696 13.1065 5.66088 13.1052C5.55255 13.0815 5.44505 13.0549 5.33839 13.0255L5.33718 13.0252C5.23024 12.9957 5.12422 12.9634 5.01913 12.9282L5.01854 12.928C4.91594 12.8937 4.81436 12.8568 4.71381 12.8171L4.70548 12.814C4.60841 12.7757 4.51251 12.7345 4.41753 12.6913C4.41136 12.6885 4.40504 12.6861 4.39889 12.6833C4.30999 12.6426 4.22241 12.599 4.13551 12.5541C4.12336 12.5478 4.11089 12.5422 4.09876 12.5359C4.01829 12.4936 3.93924 12.4486 3.86061 12.4028C3.84269 12.3924 3.82429 12.3828 3.80646 12.3722C3.73499 12.3297 3.66509 12.2844 3.59529 12.2389C3.57106 12.2231 3.54629 12.2084 3.52229 12.1922C3.45951 12.1501 3.39834 12.1054 3.33704 12.0609C3.30729 12.0393 3.27689 12.0188 3.24749 11.9966C3.19234 11.9551 3.13879 11.9112 3.08499 11.8678C3.05103 11.8403 3.01639 11.8139 2.98299 11.7857C2.93444 11.7448 2.88749 11.7018 2.84011 11.6594C2.80319 11.6263 2.76559 11.594 2.72939 11.5599C2.68594 11.5191 2.64409 11.4762 2.60171 11.4341C2.56369 11.3962 2.52509 11.3591 2.48796 11.3201C2.44766 11.2779 2.40896 11.2337 2.36974 11.1901C2.32631 11.142 2.28201 11.0948 2.23994 11.0451C1.30206 9.94103 0.7769 8.54538 0.754274 7.09687C0.731648 5.64837 1.21296 4.237 2.11589 3.10413C3.01883 1.97126 4.2873 1.18727 5.70436 0.88625C7.12142 0.585226 8.59905 0.785863 9.88454 1.45385C9.91371 1.46981 9.94578 1.47979 9.97886 1.4832C10.0119 1.48661 10.0454 1.48338 10.0772 1.47372C10.109 1.46405 10.1386 1.44812 10.1642 1.42688C10.1898 1.40564 10.2109 1.37951 10.2262 1.35001C10.2416 1.32052 10.2509 1.28825 10.2537 1.25511C10.2564 1.22197 10.2525 1.18861 10.2422 1.15699C10.2319 1.12537 10.2154 1.09613 10.1936 1.07098C10.1718 1.04582 10.1453 1.02526 10.1155 1.0105C8.72712 0.287361 7.13053 0.0694005 5.59914 0.393943C4.06775 0.718485 2.69683 1.56534 1.72114 2.78948C0.745456 4.01362 0.225708 5.53889 0.250905 7.10409C0.276102 8.66929 0.844677 10.177 1.85926 11.3691C1.87061 11.3825 1.88284 11.3949 1.89426 11.4083C1.89549 11.4097 1.89574 11.4116 1.89699 11.4131C1.92804 11.4491 1.96101 11.4831 1.99274 11.5183C2.03773 11.5683 2.08199 11.6187 2.12819 11.6671C2.16431 11.7049 2.20189 11.741 2.23879 11.7779C2.28879 11.8279 2.33814 11.8782 2.38941 11.9263C2.42339 11.9583 2.45869 11.9884 2.49326 12.0196C2.54961 12.0704 2.60576 12.1215 2.66359 12.1702C2.69326 12.1952 2.72404 12.2186 2.75411 12.243C2.81876 12.2955 2.88334 12.348 2.94974 12.398C2.97386 12.4162 2.99884 12.433 3.02319 12.4508C3.09679 12.5047 3.17069 12.5582 3.24621 12.6089C3.26479 12.6214 3.28401 12.6328 3.30274 12.645C3.38524 12.6992 3.46816 12.7525 3.55274 12.8029C3.56471 12.81 3.57711 12.8164 3.58914 12.8234C3.68119 12.8775 3.77401 12.93 3.86844 12.9795C3.87364 12.9822 3.87899 12.9845 3.88419 12.9873C4.41142 13.2624 4.97285 13.4663 5.55376 13.5935C5.55908 13.5947 5.56451 13.5954 5.56984 13.5966C5.68196 13.6208 5.79471 13.6427 5.90831 13.6613C5.92794 13.6645 5.94789 13.6663 5.96754 13.6694C6.06723 13.6848 6.16716 13.6994 6.26784 13.7102C6.31164 13.715 6.35594 13.7171 6.39991 13.721C6.47711 13.7279 6.55416 13.7357 6.63183 13.7399C6.75412 13.7466 6.87684 13.75 7.00001 13.75C7.97854 13.7512 8.94553 13.5387 9.83346 13.1275C10.7214 12.7163 11.5089 12.1162 12.1409 11.3691C12.1635 11.3419 12.1801 11.3102 12.1894 11.276C12.1909 11.2669 12.1919 11.2577 12.1924 11.2485C12.1972 11.2238 12.1982 11.1986 12.1954 11.1736Z"/>
</mask>
<path d="M12.1954 11.1736C12.1949 11.1698 12.1965 11.1663 12.1958 11.1626C12.0592 10.4148 11.6645 9.73867 11.0805 9.25209C10.4965 8.7655 9.76017 8.49934 9.00001 8.5H5.00001C4.46352 8.49947 3.93528 8.63203 3.46261 8.88581C2.98994 9.13958 2.5876 9.50664 2.29164 9.9541C2.27254 9.98142 2.2591 10.0123 2.25212 10.0449C2.24513 10.0775 2.24473 10.1111 2.25094 10.1439C2.25716 10.1767 2.26986 10.2078 2.2883 10.2356C2.30675 10.2634 2.33056 10.2872 2.35833 10.3056C2.38611 10.324 2.41729 10.3367 2.45005 10.3429C2.4828 10.3491 2.51647 10.3487 2.54906 10.3417C2.58165 10.3347 2.61252 10.3213 2.63984 10.3022C2.66715 10.2831 2.69038 10.2587 2.70814 10.2305C2.95862 9.85186 3.2991 9.54128 3.69907 9.32654C4.09905 9.11179 4.54604 8.9996 5.00001 9H9.00001C9.62248 8.9994 10.2267 9.21031 10.7136 9.59814C11.2004 9.98598 11.5411 10.5277 11.6797 11.1346C11.6525 11.1655 11.625 11.1962 11.5972 11.2267C11.5629 11.2642 11.5286 11.3018 11.4935 11.3384C11.4507 11.3829 11.4069 11.426 11.363 11.4691C11.3266 11.5048 11.2903 11.5406 11.2532 11.5754C11.2085 11.617 11.1628 11.6573 11.1171 11.6976C11.0787 11.7313 11.0406 11.7653 11.0015 11.798C10.9553 11.8367 10.908 11.8739 10.8607 11.9112C10.8204 11.9431 10.7803 11.9753 10.7392 12.006C10.6917 12.0417 10.6429 12.0758 10.5944 12.1101C10.552 12.1401 10.5099 12.1703 10.4669 12.1991C10.4179 12.2318 10.368 12.2628 10.3181 12.2941C10.274 12.3218 10.2302 12.35 10.1855 12.3766C10.1352 12.4066 10.0838 12.4345 10.0327 12.463C9.98701 12.4884 9.94164 12.5144 9.89521 12.5386C9.84356 12.5657 9.79096 12.5908 9.73856 12.6164C9.69156 12.6393 9.64486 12.663 9.59729 12.6848C9.54406 12.7091 9.48993 12.7314 9.43604 12.7542C9.38803 12.7745 9.34039 12.7957 9.29186 12.8148C9.23709 12.8364 9.18144 12.8558 9.12604 12.8758C9.07734 12.8933 9.02899 12.912 8.97981 12.9283C8.92329 12.9472 8.86591 12.9637 8.80879 12.981C8.75969 12.9958 8.71094 13.0117 8.66141 13.0253C8.60306 13.0414 8.54391 13.055 8.48504 13.0693C8.43591 13.0813 8.38716 13.0945 8.33769 13.1053C8.27671 13.1186 8.21501 13.1293 8.15354 13.1408C8.10531 13.1498 8.05746 13.1601 8.00896 13.168C7.94384 13.1786 7.87801 13.1864 7.81239 13.195C7.76691 13.2009 7.72178 13.2083 7.67611 13.2132C7.60111 13.2213 7.52549 13.2263 7.44999 13.2318C7.41314 13.2344 7.37659 13.2386 7.33964 13.2406C7.22695 13.2469 7.11374 13.25 7.00001 13.25C6.88589 13.25 6.7722 13.2469 6.65894 13.2407C6.58866 13.2369 6.51894 13.2298 6.44894 13.2236C6.40673 13.2199 6.36423 13.2178 6.32219 13.2132C6.22623 13.2028 6.13094 13.1892 6.03591 13.1743C6.02051 13.1718 6.00486 13.1705 5.98948 13.168C5.88536 13.151 5.78199 13.1309 5.67921 13.1087C5.67314 13.1074 5.66696 13.1065 5.66088 13.1052C5.55255 13.0815 5.44505 13.0549 5.33839 13.0255L5.33718 13.0252C5.23024 12.9957 5.12422 12.9634 5.01913 12.9282L5.01854 12.928C4.91594 12.8937 4.81436 12.8568 4.71381 12.8171L4.70548 12.814C4.60841 12.7757 4.51251 12.7345 4.41753 12.6913C4.41136 12.6885 4.40504 12.6861 4.39889 12.6833C4.30999 12.6426 4.22241 12.599 4.13551 12.5541C4.12336 12.5478 4.11089 12.5422 4.09876 12.5359C4.01829 12.4936 3.93924 12.4486 3.86061 12.4028C3.84269 12.3924 3.82429 12.3828 3.80646 12.3722C3.73499 12.3297 3.66509 12.2844 3.59529 12.2389C3.57106 12.2231 3.54629 12.2084 3.52229 12.1922C3.45951 12.1501 3.39834 12.1054 3.33704 12.0609C3.30729 12.0393 3.27689 12.0188 3.24749 11.9966C3.19234 11.9551 3.13879 11.9112 3.08499 11.8678C3.05103 11.8403 3.01639 11.8139 2.98299 11.7857C2.93444 11.7448 2.88749 11.7018 2.84011 11.6594C2.80319 11.6263 2.76559 11.594 2.72939 11.5599C2.68594 11.5191 2.64409 11.4762 2.60171 11.4341C2.56369 11.3962 2.52509 11.3591 2.48796 11.3201C2.44766 11.2779 2.40896 11.2337 2.36974 11.1901C2.32631 11.142 2.28201 11.0948 2.23994 11.0451C1.30206 9.94103 0.7769 8.54538 0.754274 7.09687C0.731648 5.64837 1.21296 4.237 2.11589 3.10413C3.01883 1.97126 4.2873 1.18727 5.70436 0.88625C7.12142 0.585226 8.59905 0.785863 9.88454 1.45385C9.91371 1.46981 9.94578 1.47979 9.97886 1.4832C10.0119 1.48661 10.0454 1.48338 10.0772 1.47372C10.109 1.46405 10.1386 1.44812 10.1642 1.42688C10.1898 1.40564 10.2109 1.37951 10.2262 1.35001C10.2416 1.32052 10.2509 1.28825 10.2537 1.25511C10.2564 1.22197 10.2525 1.18861 10.2422 1.15699C10.2319 1.12537 10.2154 1.09613 10.1936 1.07098C10.1718 1.04582 10.1453 1.02526 10.1155 1.0105C8.72712 0.287361 7.13053 0.0694005 5.59914 0.393943C4.06775 0.718485 2.69683 1.56534 1.72114 2.78948C0.745456 4.01362 0.225708 5.53889 0.250905 7.10409C0.276102 8.66929 0.844677 10.177 1.85926 11.3691C1.87061 11.3825 1.88284 11.3949 1.89426 11.4083C1.89549 11.4097 1.89574 11.4116 1.89699 11.4131C1.92804 11.4491 1.96101 11.4831 1.99274 11.5183C2.03773 11.5683 2.08199 11.6187 2.12819 11.6671C2.16431 11.7049 2.20189 11.741 2.23879 11.7779C2.28879 11.8279 2.33814 11.8782 2.38941 11.9263C2.42339 11.9583 2.45869 11.9884 2.49326 12.0196C2.54961 12.0704 2.60576 12.1215 2.66359 12.1702C2.69326 12.1952 2.72404 12.2186 2.75411 12.243C2.81876 12.2955 2.88334 12.348 2.94974 12.398C2.97386 12.4162 2.99884 12.433 3.02319 12.4508C3.09679 12.5047 3.17069 12.5582 3.24621 12.6089C3.26479 12.6214 3.28401 12.6328 3.30274 12.645C3.38524 12.6992 3.46816 12.7525 3.55274 12.8029C3.56471 12.81 3.57711 12.8164 3.58914 12.8234C3.68119 12.8775 3.77401 12.93 3.86844 12.9795C3.87364 12.9822 3.87899 12.9845 3.88419 12.9873C4.41142 13.2624 4.97285 13.4663 5.55376 13.5935C5.55908 13.5947 5.56451 13.5954 5.56984 13.5966C5.68196 13.6208 5.79471 13.6427 5.90831 13.6613C5.92794 13.6645 5.94789 13.6663 5.96754 13.6694C6.06723 13.6848 6.16716 13.6994 6.26784 13.7102C6.31164 13.715 6.35594 13.7171 6.39991 13.721C6.47711 13.7279 6.55416 13.7357 6.63183 13.7399C6.75412 13.7466 6.87684 13.75 7.00001 13.75C7.97854 13.7512 8.94553 13.5387 9.83346 13.1275C10.7214 12.7163 11.5089 12.1162 12.1409 11.3691C12.1635 11.3419 12.1801 11.3102 12.1894 11.276C12.1909 11.2669 12.1919 11.2577 12.1924 11.2485C12.1972 11.2238 12.1982 11.1986 12.1954 11.1736Z" fill="white"/>
<path d="M12.1954 11.1736C12.1949 11.1698 12.1965 11.1663 12.1958 11.1626C12.0592 10.4148 11.6645 9.73867 11.0805 9.25209C10.4965 8.7655 9.76017 8.49934 9.00001 8.5H5.00001C4.46352 8.49947 3.93528 8.63203 3.46261 8.88581C2.98994 9.13958 2.5876 9.50664 2.29164 9.9541C2.27254 9.98142 2.2591 10.0123 2.25212 10.0449C2.24513 10.0775 2.24473 10.1111 2.25094 10.1439C2.25716 10.1767 2.26986 10.2078 2.2883 10.2356C2.30675 10.2634 2.33056 10.2872 2.35833 10.3056C2.38611 10.324 2.41729 10.3367 2.45005 10.3429C2.4828 10.3491 2.51647 10.3487 2.54906 10.3417C2.58165 10.3347 2.61252 10.3213 2.63984 10.3022C2.66715 10.2831 2.69038 10.2587 2.70814 10.2305C2.95862 9.85186 3.2991 9.54128 3.69907 9.32654C4.09905 9.11179 4.54604 8.9996 5.00001 9H9.00001C9.62248 8.9994 10.2267 9.21031 10.7136 9.59814C11.2004 9.98598 11.5411 10.5277 11.6797 11.1346C11.6525 11.1655 11.625 11.1962 11.5972 11.2267C11.5629 11.2642 11.5286 11.3018 11.4935 11.3384C11.4507 11.3829 11.4069 11.426 11.363 11.4691C11.3266 11.5048 11.2903 11.5406 11.2532 11.5754C11.2085 11.617 11.1628 11.6573 11.1171 11.6976C11.0787 11.7313 11.0406 11.7653 11.0015 11.798C10.9553 11.8367 10.908 11.8739 10.8607 11.9112C10.8204 11.9431 10.7803 11.9753 10.7392 12.006C10.6917 12.0417 10.6429 12.0758 10.5944 12.1101C10.552 12.1401 10.5099 12.1703 10.4669 12.1991C10.4179 12.2318 10.368 12.2628 10.3181 12.2941C10.274 12.3218 10.2302 12.35 10.1855 12.3766C10.1352 12.4066 10.0838 12.4345 10.0327 12.463C9.98701 12.4884 9.94164 12.5144 9.89521 12.5386C9.84356 12.5657 9.79096 12.5908 9.73856 12.6164C9.69156 12.6393 9.64486 12.663 9.59729 12.6848C9.54406 12.7091 9.48993 12.7314 9.43604 12.7542C9.38803 12.7745 9.34039 12.7957 9.29186 12.8148C9.23709 12.8364 9.18144 12.8558 9.12604 12.8758C9.07734 12.8933 9.02899 12.912 8.97981 12.9283C8.92329 12.9472 8.86591 12.9637 8.80879 12.981C8.75969 12.9958 8.71094 13.0117 8.66141 13.0253C8.60306 13.0414 8.54391 13.055 8.48504 13.0693C8.43591 13.0813 8.38716 13.0945 8.33769 13.1053C8.27671 13.1186 8.21501 13.1293 8.15354 13.1408C8.10531 13.1498 8.05746 13.1601 8.00896 13.168C7.94384 13.1786 7.87801 13.1864 7.81239 13.195C7.76691 13.2009 7.72178 13.2083 7.67611 13.2132C7.60111 13.2213 7.52549 13.2263 7.44999 13.2318C7.41314 13.2344 7.37659 13.2386 7.33964 13.2406C7.22695 13.2469 7.11374 13.25 7.00001 13.25C6.88589 13.25 6.7722 13.2469 6.65894 13.2407C6.58866 13.2369 6.51894 13.2298 6.44894 13.2236C6.40673 13.2199 6.36423 13.2178 6.32219 13.2132C6.22623 13.2028 6.13094 13.1892 6.03591 13.1743C6.02051 13.1718 6.00486 13.1705 5.98948 13.168C5.88536 13.151 5.78199 13.1309 5.67921 13.1087C5.67314 13.1074 5.66696 13.1065 5.66088 13.1052C5.55255 13.0815 5.44505 13.0549 5.33839 13.0255L5.33718 13.0252C5.23024 12.9957 5.12422 12.9634 5.01913 12.9282L5.01854 12.928C4.91594 12.8937 4.81436 12.8568 4.71381 12.8171L4.70548 12.814C4.60841 12.7757 4.51251 12.7345 4.41753 12.6913C4.41136 12.6885 4.40504 12.6861 4.39889 12.6833C4.30999 12.6426 4.22241 12.599 4.13551 12.5541C4.12336 12.5478 4.11089 12.5422 4.09876 12.5359C4.01829 12.4936 3.93924 12.4486 3.86061 12.4028C3.84269 12.3924 3.82429 12.3828 3.80646 12.3722C3.73499 12.3297 3.66509 12.2844 3.59529 12.2389C3.57106 12.2231 3.54629 12.2084 3.52229 12.1922C3.45951 12.1501 3.39834 12.1054 3.33704 12.0609C3.30729 12.0393 3.27689 12.0188 3.24749 11.9966C3.19234 11.9551 3.13879 11.9112 3.08499 11.8678C3.05103 11.8403 3.01639 11.8139 2.98299 11.7857C2.93444 11.7448 2.88749 11.7018 2.84011 11.6594C2.80319 11.6263 2.76559 11.594 2.72939 11.5599C2.68594 11.5191 2.64409 11.4762 2.60171 11.4341C2.56369 11.3962 2.52509 11.3591 2.48796 11.3201C2.44766 11.2779 2.40896 11.2337 2.36974 11.1901C2.32631 11.142 2.28201 11.0948 2.23994 11.0451C1.30206 9.94103 0.7769 8.54538 0.754274 7.09687C0.731648 5.64837 1.21296 4.237 2.11589 3.10413C3.01883 1.97126 4.2873 1.18727 5.70436 0.88625C7.12142 0.585226 8.59905 0.785863 9.88454 1.45385C9.91371 1.46981 9.94578 1.47979 9.97886 1.4832C10.0119 1.48661 10.0454 1.48338 10.0772 1.47372C10.109 1.46405 10.1386 1.44812 10.1642 1.42688C10.1898 1.40564 10.2109 1.37951 10.2262 1.35001C10.2416 1.32052 10.2509 1.28825 10.2537 1.25511C10.2564 1.22197 10.2525 1.18861 10.2422 1.15699C10.2319 1.12537 10.2154 1.09613 10.1936 1.07098C10.1718 1.04582 10.1453 1.02526 10.1155 1.0105C8.72712 0.287361 7.13053 0.0694005 5.59914 0.393943C4.06775 0.718485 2.69683 1.56534 1.72114 2.78948C0.745456 4.01362 0.225708 5.53889 0.250905 7.10409C0.276102 8.66929 0.844677 10.177 1.85926 11.3691C1.87061 11.3825 1.88284 11.3949 1.89426 11.4083C1.89549 11.4097 1.89574 11.4116 1.89699 11.4131C1.92804 11.4491 1.96101 11.4831 1.99274 11.5183C2.03773 11.5683 2.08199 11.6187 2.12819 11.6671C2.16431 11.7049 2.20189 11.741 2.23879 11.7779C2.28879 11.8279 2.33814 11.8782 2.38941 11.9263C2.42339 11.9583 2.45869 11.9884 2.49326 12.0196C2.54961 12.0704 2.60576 12.1215 2.66359 12.1702C2.69326 12.1952 2.72404 12.2186 2.75411 12.243C2.81876 12.2955 2.88334 12.348 2.94974 12.398C2.97386 12.4162 2.99884 12.433 3.02319 12.4508C3.09679 12.5047 3.17069 12.5582 3.24621 12.6089C3.26479 12.6214 3.28401 12.6328 3.30274 12.645C3.38524 12.6992 3.46816 12.7525 3.55274 12.8029C3.56471 12.81 3.57711 12.8164 3.58914 12.8234C3.68119 12.8775 3.77401 12.93 3.86844 12.9795C3.87364 12.9822 3.87899 12.9845 3.88419 12.9873C4.41142 13.2624 4.97285 13.4663 5.55376 13.5935C5.55908 13.5947 5.56451 13.5954 5.56984 13.5966C5.68196 13.6208 5.79471 13.6427 5.90831 13.6613C5.92794 13.6645 5.94789 13.6663 5.96754 13.6694C6.06723 13.6848 6.16716 13.6994 6.26784 13.7102C6.31164 13.715 6.35594 13.7171 6.39991 13.721C6.47711 13.7279 6.55416 13.7357 6.63183 13.7399C6.75412 13.7466 6.87684 13.75 7.00001 13.75C7.97854 13.7512 8.94553 13.5387 9.83346 13.1275C10.7214 12.7163 11.5089 12.1162 12.1409 11.3691C12.1635 11.3419 12.1801 11.3102 12.1894 11.276C12.1909 11.2669 12.1919 11.2577 12.1924 11.2485C12.1972 11.2238 12.1982 11.1986 12.1954 11.1736Z" stroke="white" stroke-width="0.4" mask="url(#path-1-outside-1_1_25707)"/>
<path d="M12.3256 10.0744C12.279 10.1547 12.2662 10.2501 12.2901 10.3398C12.3139 10.4296 12.3724 10.5061 12.4527 10.5527C12.533 10.5993 12.6285 10.6121 12.7182 10.5883C12.8079 10.5645 12.8845 10.506 12.9311 10.4257L12.9312 10.4255C13.5106 9.42236 13.8262 8.28872 13.8486 7.1305C13.871 5.97229 13.5994 4.82729 13.0593 3.80249L13.0593 3.80247C13.0378 3.7618 13.0086 3.72575 12.9732 3.6964C12.9378 3.66705 12.8969 3.64498 12.853 3.63145C12.809 3.61792 12.7628 3.61319 12.717 3.61754C12.6713 3.62189 12.6268 3.63521 12.5863 3.65675M12.3256 10.0744C12.3256 10.0744 12.3256 10.0743 12.3256 10.0743L12.4121 10.1245L12.3255 10.0745C12.3255 10.0745 12.3255 10.0744 12.3256 10.0744ZM12.3256 10.0744C12.8455 9.17396 13.1287 8.15644 13.1489 7.11687C13.169 6.07727 12.9253 5.04952 12.4406 4.12961L12.5291 4.08299L12.4407 4.12985C12.4192 4.08922 12.4058 4.04475 12.4015 3.99898C12.3972 3.9532 12.4019 3.90702 12.4154 3.86307C12.429 3.81913 12.451 3.77828 12.4803 3.74287C12.5096 3.70749 12.5456 3.67822 12.5863 3.65675M12.5863 3.65675C12.5862 3.65677 12.5862 3.65678 12.5862 3.6568L12.6331 3.74512L12.5863 3.6567C12.5863 3.65671 12.5863 3.65673 12.5863 3.65675Z" fill="white" stroke="white" stroke-width="0.2"/>
<path d="M7.00011 1.9H7C6.38688 1.9 5.78753 2.08181 5.27773 2.42244C4.76794 2.76308 4.37061 3.24723 4.13597 3.81368C3.90134 4.38013 3.83995 5.00344 3.95957 5.60478C4.07918 6.20612 4.37443 6.75849 4.80797 7.19203C5.24151 7.62557 5.79388 7.92082 6.39522 8.04043C6.99656 8.16005 7.61987 8.09866 8.18632 7.86403C8.75277 7.6294 9.23692 7.23206 9.57756 6.72227C9.91819 6.21248 10.1 5.61312 10.1 5V4.99989C10.0991 4.17803 9.7722 3.39009 9.19105 2.80895C8.60991 2.2278 7.82197 1.90092 7.00011 1.9ZM6.99989 7.4C6.52525 7.39998 6.06128 7.25922 5.66663 6.99553C5.27195 6.73181 4.96434 6.35698 4.78269 5.91844C4.60104 5.4799 4.55351 4.99734 4.64612 4.53178C4.73872 4.06623 4.9673 3.63859 5.30294 3.30294C5.63859 2.9673 6.06623 2.73872 6.53178 2.64612C6.99734 2.55351 7.4799 2.60104 7.91844 2.78269C8.35698 2.96434 8.73181 3.27195 8.99553 3.66663C9.25922 4.06128 9.39998 4.52525 9.4 4.99989C9.39928 5.63621 9.14618 6.24627 8.69622 6.69622C8.24627 7.14617 7.63621 7.39928 6.99989 7.4Z" fill="white" stroke="white" stroke-width="0.2"/>
<path d="M10 1.9C9.90717 1.9 9.81815 1.93687 9.75251 2.00251C9.68687 2.06815 9.65 2.15717 9.65 2.25C9.65 2.34283 9.68687 2.43185 9.75251 2.49749C9.81815 2.56313 9.90717 2.6 10 2.6H11.4V4C11.4 4.09283 11.4369 4.18185 11.5025 4.24749C11.5682 4.31313 11.6572 4.35 11.75 4.35C11.8428 4.35 11.9318 4.31313 11.9975 4.24749C12.0631 4.18185 12.1 4.09283 12.1 4V2.6H13.5C13.5928 2.6 13.6818 2.56313 13.7475 2.49749C13.8131 2.43185 13.85 2.34283 13.85 2.25C13.85 2.15717 13.8131 2.06815 13.7475 2.00251C13.6818 1.93687 13.5928 1.9 13.5 1.9H12.1V0.5C12.1 0.407174 12.0631 0.318151 11.9975 0.252513C11.9318 0.186875 11.8428 0.15 11.75 0.15C11.6572 0.15 11.5682 0.186875 11.5025 0.252513C11.4369 0.318151 11.4 0.407174 11.4 0.5V1.9H10Z" fill="white" stroke="white" stroke-width="0.2"/>
</svg>
