<svg width="17" height="16" viewBox="0 0 17 16" fill="none" xmlns="http://www.w3.org/2000/svg">
<path d="M12.5 4.77335C12.46 4.76668 12.4133 4.76668 12.3733 4.77335C11.4533 4.74001 10.72 3.98668 10.72 3.05334C10.72 2.10001 11.4867 1.33334 12.44 1.33334C13.3933 1.33334 14.16 2.10668 14.16 3.05334C14.1533 3.98668 13.42 4.74001 12.5 4.77335Z" stroke="white" stroke-width="0.9" stroke-linecap="round" stroke-linejoin="round"/>
<path d="M11.8133 9.62669C12.7267 9.78003 13.7333 9.62003 14.44 9.14669C15.38 8.52003 15.38 7.49336 14.44 6.86669C13.7267 6.39336 12.7067 6.23336 11.7933 6.39336" stroke="white" stroke-width="0.9" stroke-linecap="round" stroke-linejoin="round"/>
<path d="M4.48001 4.77335C4.52001 4.76668 4.56667 4.76668 4.60667 4.77335C5.52667 4.74001 6.26001 3.98668 6.26001 3.05334C6.26001 2.10001 5.49334 1.33334 4.54001 1.33334C3.58668 1.33334 2.82001 2.10668 2.82001 3.05334C2.82667 3.98668 3.56001 4.74001 4.48001 4.77335Z" stroke="white" stroke-width="0.9" stroke-linecap="round" stroke-linejoin="round"/>
<path d="M5.16667 9.62669C4.25334 9.78003 3.24667 9.62003 2.54001 9.14669C1.60001 8.52003 1.60001 7.49336 2.54001 6.86669C3.25334 6.39336 4.27334 6.23336 5.18667 6.39336" stroke="white" stroke-width="0.9" stroke-linecap="round" stroke-linejoin="round"/>
<path d="M8.5 9.75333C8.46 9.74666 8.41333 9.74666 8.37333 9.75333C7.45333 9.71999 6.72 8.96666 6.72 8.03333C6.72 7.07999 7.48667 6.31332 8.44 6.31332C9.39333 6.31332 10.16 7.08666 10.16 8.03333C10.1533 8.96666 9.42 9.72666 8.5 9.75333Z" stroke="white" stroke-width="0.9" stroke-linecap="round" stroke-linejoin="round"/>
<path d="M6.56 11.8533C5.62 12.48 5.62 13.5067 6.56 14.1333C7.62666 14.8467 9.37333 14.8467 10.44 14.1333C11.38 13.5067 11.38 12.48 10.44 11.8533C9.38 11.1467 7.62666 11.1467 6.56 11.8533Z" stroke="white" stroke-width="0.9" stroke-linecap="round" stroke-linejoin="round"/>
</svg>
